<mxfile host="app.diagrams.net" modified="2024-04-30T10:10:36.430Z" agent="Mozilla/5.0 (Windows NT 10.0; Win64; x64) AppleWebKit/537.36 (KHTML, like Gecko) Chrome/124.0.0.0 Safari/537.36" etag="3SebzWQYPzcLs8AKZTB_" version="24.3.1" type="device">
  <diagram name="Page-1" id="7Z9n95kimiWt8wUi85Q_">
    <mxGraphModel dx="1434" dy="772" grid="1" gridSize="10" guides="1" tooltips="1" connect="1" arrows="1" fold="1" page="1" pageScale="1" pageWidth="850" pageHeight="1100" math="0" shadow="0">
      <root>
        <mxCell id="0" />
        <mxCell id="1" parent="0" />
        <mxCell id="LLJzu3yM0G75FeSDuMVk-58" style="edgeStyle=orthogonalEdgeStyle;rounded=0;orthogonalLoop=1;jettySize=auto;html=1;entryX=-0.025;entryY=0.613;entryDx=0;entryDy=0;entryPerimeter=0;" edge="1" parent="1" source="LLJzu3yM0G75FeSDuMVk-49" target="LLJzu3yM0G75FeSDuMVk-50">
          <mxGeometry relative="1" as="geometry">
            <mxPoint x="160" y="70" as="targetPoint" />
            <Array as="points">
              <mxPoint x="100" y="79" />
            </Array>
          </mxGeometry>
        </mxCell>
        <mxCell id="LLJzu3yM0G75FeSDuMVk-59" style="edgeStyle=orthogonalEdgeStyle;rounded=0;orthogonalLoop=1;jettySize=auto;html=1;entryX=0;entryY=0.5;entryDx=0;entryDy=0;" edge="1" parent="1" source="LLJzu3yM0G75FeSDuMVk-49" target="LLJzu3yM0G75FeSDuMVk-51">
          <mxGeometry relative="1" as="geometry">
            <Array as="points">
              <mxPoint x="110" y="160" />
            </Array>
          </mxGeometry>
        </mxCell>
        <mxCell id="LLJzu3yM0G75FeSDuMVk-60" style="edgeStyle=orthogonalEdgeStyle;rounded=0;orthogonalLoop=1;jettySize=auto;html=1;entryX=0;entryY=0.5;entryDx=0;entryDy=0;" edge="1" parent="1" source="LLJzu3yM0G75FeSDuMVk-49" target="LLJzu3yM0G75FeSDuMVk-52">
          <mxGeometry relative="1" as="geometry">
            <Array as="points">
              <mxPoint x="120" y="395" />
              <mxPoint x="120" y="250" />
            </Array>
          </mxGeometry>
        </mxCell>
        <mxCell id="LLJzu3yM0G75FeSDuMVk-61" style="edgeStyle=orthogonalEdgeStyle;rounded=0;orthogonalLoop=1;jettySize=auto;html=1;" edge="1" parent="1" source="LLJzu3yM0G75FeSDuMVk-49" target="LLJzu3yM0G75FeSDuMVk-53">
          <mxGeometry relative="1" as="geometry">
            <Array as="points">
              <mxPoint x="130" y="395" />
              <mxPoint x="130" y="350" />
            </Array>
          </mxGeometry>
        </mxCell>
        <mxCell id="LLJzu3yM0G75FeSDuMVk-62" style="edgeStyle=orthogonalEdgeStyle;rounded=0;orthogonalLoop=1;jettySize=auto;html=1;entryX=0;entryY=0.5;entryDx=0;entryDy=0;" edge="1" parent="1" source="LLJzu3yM0G75FeSDuMVk-49" target="LLJzu3yM0G75FeSDuMVk-54">
          <mxGeometry relative="1" as="geometry">
            <mxPoint x="130" y="400" as="targetPoint" />
            <Array as="points">
              <mxPoint x="180" y="450" />
              <mxPoint x="180" y="450" />
            </Array>
          </mxGeometry>
        </mxCell>
        <mxCell id="LLJzu3yM0G75FeSDuMVk-63" style="edgeStyle=orthogonalEdgeStyle;rounded=0;orthogonalLoop=1;jettySize=auto;html=1;entryX=0;entryY=0.5;entryDx=0;entryDy=0;" edge="1" parent="1" source="LLJzu3yM0G75FeSDuMVk-49" target="LLJzu3yM0G75FeSDuMVk-55">
          <mxGeometry relative="1" as="geometry">
            <Array as="points">
              <mxPoint x="100" y="490" />
              <mxPoint x="190" y="490" />
              <mxPoint x="190" y="550" />
            </Array>
          </mxGeometry>
        </mxCell>
        <mxCell id="LLJzu3yM0G75FeSDuMVk-64" style="edgeStyle=orthogonalEdgeStyle;rounded=0;orthogonalLoop=1;jettySize=auto;html=1;entryX=0;entryY=0.5;entryDx=0;entryDy=0;" edge="1" parent="1" source="LLJzu3yM0G75FeSDuMVk-49" target="LLJzu3yM0G75FeSDuMVk-56">
          <mxGeometry relative="1" as="geometry">
            <Array as="points">
              <mxPoint x="65" y="640" />
            </Array>
          </mxGeometry>
        </mxCell>
        <mxCell id="LLJzu3yM0G75FeSDuMVk-65" style="edgeStyle=orthogonalEdgeStyle;rounded=0;orthogonalLoop=1;jettySize=auto;html=1;entryX=0;entryY=0.5;entryDx=0;entryDy=0;" edge="1" parent="1" source="LLJzu3yM0G75FeSDuMVk-49" target="LLJzu3yM0G75FeSDuMVk-57">
          <mxGeometry relative="1" as="geometry">
            <Array as="points">
              <mxPoint x="65" y="740" />
            </Array>
          </mxGeometry>
        </mxCell>
        <mxCell id="LLJzu3yM0G75FeSDuMVk-49" value="User" style="shape=umlActor;verticalLabelPosition=bottom;verticalAlign=top;html=1;outlineConnect=0;" vertex="1" parent="1">
          <mxGeometry x="20" y="310" width="90" height="170" as="geometry" />
        </mxCell>
        <mxCell id="LLJzu3yM0G75FeSDuMVk-50" value="Register" style="ellipse;whiteSpace=wrap;html=1;" vertex="1" parent="1">
          <mxGeometry x="270" y="30" width="120" height="80" as="geometry" />
        </mxCell>
        <mxCell id="LLJzu3yM0G75FeSDuMVk-51" value="login" style="ellipse;whiteSpace=wrap;html=1;" vertex="1" parent="1">
          <mxGeometry x="270" y="120" width="120" height="80" as="geometry" />
        </mxCell>
        <mxCell id="LLJzu3yM0G75FeSDuMVk-52" value="Add bank Details" style="ellipse;whiteSpace=wrap;html=1;" vertex="1" parent="1">
          <mxGeometry x="270" y="210" width="120" height="80" as="geometry" />
        </mxCell>
        <mxCell id="LLJzu3yM0G75FeSDuMVk-53" value="Check Balance" style="ellipse;whiteSpace=wrap;html=1;" vertex="1" parent="1">
          <mxGeometry x="270" y="310" width="120" height="80" as="geometry" />
        </mxCell>
        <mxCell id="LLJzu3yM0G75FeSDuMVk-54" value="Do Payment" style="ellipse;whiteSpace=wrap;html=1;" vertex="1" parent="1">
          <mxGeometry x="270" y="410" width="120" height="80" as="geometry" />
        </mxCell>
        <mxCell id="LLJzu3yM0G75FeSDuMVk-55" value="Get Cashback" style="ellipse;whiteSpace=wrap;html=1;" vertex="1" parent="1">
          <mxGeometry x="270" y="510" width="120" height="80" as="geometry" />
        </mxCell>
        <mxCell id="LLJzu3yM0G75FeSDuMVk-56" value="Do recharge" style="ellipse;whiteSpace=wrap;html=1;" vertex="1" parent="1">
          <mxGeometry x="270" y="600" width="120" height="80" as="geometry" />
        </mxCell>
        <mxCell id="LLJzu3yM0G75FeSDuMVk-57" value="Pay any Bill" style="ellipse;whiteSpace=wrap;html=1;" vertex="1" parent="1">
          <mxGeometry x="270" y="700" width="120" height="80" as="geometry" />
        </mxCell>
        <mxCell id="LLJzu3yM0G75FeSDuMVk-67" value="paytm&lt;div&gt;&lt;br&gt;&lt;/div&gt;" style="shape=umlActor;verticalLabelPosition=bottom;verticalAlign=top;html=1;outlineConnect=0;" vertex="1" parent="1">
          <mxGeometry x="710" y="320" width="100" height="160" as="geometry" />
        </mxCell>
        <mxCell id="LLJzu3yM0G75FeSDuMVk-68" value="See Customer Details" style="ellipse;whiteSpace=wrap;html=1;" vertex="1" parent="1">
          <mxGeometry x="450" y="610" width="120" height="80" as="geometry" />
        </mxCell>
        <mxCell id="LLJzu3yM0G75FeSDuMVk-69" value="bank connection" style="ellipse;whiteSpace=wrap;html=1;" vertex="1" parent="1">
          <mxGeometry x="450" y="130" width="120" height="80" as="geometry" />
        </mxCell>
        <mxCell id="LLJzu3yM0G75FeSDuMVk-70" value="Add offers/rewards/cashback" style="ellipse;whiteSpace=wrap;html=1;" vertex="1" parent="1">
          <mxGeometry x="450" y="220" width="140" height="80" as="geometry" />
        </mxCell>
        <mxCell id="LLJzu3yM0G75FeSDuMVk-71" value="Gateway to customer and bank" style="ellipse;whiteSpace=wrap;html=1;" vertex="1" parent="1">
          <mxGeometry x="450" y="320" width="120" height="80" as="geometry" />
        </mxCell>
        <mxCell id="LLJzu3yM0G75FeSDuMVk-72" value="See how many transactions done" style="ellipse;whiteSpace=wrap;html=1;" vertex="1" parent="1">
          <mxGeometry x="450" y="420" width="120" height="80" as="geometry" />
        </mxCell>
        <mxCell id="LLJzu3yM0G75FeSDuMVk-73" value="postpaid facility to user" style="ellipse;whiteSpace=wrap;html=1;" vertex="1" parent="1">
          <mxGeometry x="450" y="520" width="120" height="80" as="geometry" />
        </mxCell>
        <mxCell id="LLJzu3yM0G75FeSDuMVk-75" value="" style="endArrow=classic;html=1;rounded=0;exitX=0.5;exitY=0;exitDx=0;exitDy=0;exitPerimeter=0;" edge="1" parent="1" source="LLJzu3yM0G75FeSDuMVk-67">
          <mxGeometry width="50" height="50" relative="1" as="geometry">
            <mxPoint x="750" y="170" as="sourcePoint" />
            <mxPoint x="570" y="170" as="targetPoint" />
            <Array as="points">
              <mxPoint x="760" y="170" />
            </Array>
          </mxGeometry>
        </mxCell>
        <mxCell id="LLJzu3yM0G75FeSDuMVk-76" value="" style="endArrow=classic;html=1;rounded=0;entryX=1;entryY=0.725;entryDx=0;entryDy=0;entryPerimeter=0;" edge="1" parent="1" target="LLJzu3yM0G75FeSDuMVk-70">
          <mxGeometry width="50" height="50" relative="1" as="geometry">
            <mxPoint x="740" y="310" as="sourcePoint" />
            <mxPoint x="750" y="320" as="targetPoint" />
            <Array as="points">
              <mxPoint x="740" y="280" />
            </Array>
          </mxGeometry>
        </mxCell>
        <mxCell id="LLJzu3yM0G75FeSDuMVk-77" value="" style="endArrow=classic;html=1;rounded=0;entryX=1;entryY=0.5;entryDx=0;entryDy=0;" edge="1" parent="1" target="LLJzu3yM0G75FeSDuMVk-71">
          <mxGeometry width="50" height="50" relative="1" as="geometry">
            <mxPoint x="700" y="360" as="sourcePoint" />
            <mxPoint x="580" y="330" as="targetPoint" />
          </mxGeometry>
        </mxCell>
        <mxCell id="LLJzu3yM0G75FeSDuMVk-78" value="" style="endArrow=classic;html=1;rounded=0;exitX=0;exitY=1;exitDx=0;exitDy=0;exitPerimeter=0;entryX=0.983;entryY=0.738;entryDx=0;entryDy=0;entryPerimeter=0;" edge="1" parent="1" source="LLJzu3yM0G75FeSDuMVk-67" target="LLJzu3yM0G75FeSDuMVk-72">
          <mxGeometry width="50" height="50" relative="1" as="geometry">
            <mxPoint x="640" y="510" as="sourcePoint" />
            <mxPoint x="580" y="480" as="targetPoint" />
          </mxGeometry>
        </mxCell>
        <mxCell id="LLJzu3yM0G75FeSDuMVk-80" value="" style="endArrow=classic;html=1;rounded=0;" edge="1" parent="1">
          <mxGeometry width="50" height="50" relative="1" as="geometry">
            <mxPoint x="790" y="510" as="sourcePoint" />
            <mxPoint x="570" y="650" as="targetPoint" />
            <Array as="points">
              <mxPoint x="790" y="650" />
            </Array>
          </mxGeometry>
        </mxCell>
        <mxCell id="LLJzu3yM0G75FeSDuMVk-81" value="" style="endArrow=classic;html=1;rounded=0;" edge="1" parent="1">
          <mxGeometry width="50" height="50" relative="1" as="geometry">
            <mxPoint x="760" y="520" as="sourcePoint" />
            <mxPoint x="580" y="560" as="targetPoint" />
            <Array as="points">
              <mxPoint x="760" y="560" />
            </Array>
          </mxGeometry>
        </mxCell>
      </root>
    </mxGraphModel>
  </diagram>
</mxfile>
